<svg width="202" height="204" viewBox="0 0 202 204" fill="none" xmlns="http://www.w3.org/2000/svg">
<path d="M80.0475 195.011L77.969 194.66L79.2369 187.164C79.3758 186.342 79.6923 185.652 80.1862 185.094C80.6764 184.536 81.3003 184.14 82.0581 183.907C82.8153 183.678 83.6607 183.642 84.5944 183.8C85.5319 183.959 86.3204 184.271 86.9601 184.736C87.5991 185.205 88.0583 185.784 88.3375 186.473C88.6167 187.162 88.6868 187.917 88.5478 188.739L87.28 196.234L85.2016 195.883L86.44 188.561C86.5208 188.083 86.4883 187.639 86.3423 187.23C86.1926 186.821 85.9434 186.477 85.5947 186.199C85.2454 185.925 84.8074 185.743 84.2808 185.654C83.7542 185.565 83.2809 185.593 82.8608 185.737C82.4364 185.884 82.088 186.127 81.8157 186.465C81.5434 186.803 81.3668 187.211 81.2859 187.689L80.0475 195.011Z" fill="white"/>
<path d="M75.2882 193.698L73.9836 188.9L73.8962 188.875L70.2587 192.274L67.9462 191.619L72.9809 186.998L71.0617 180.408L73.4125 181.073L74.7522 185.852L74.8397 185.877L78.4858 182.51L80.8256 183.172L75.7034 187.769L77.6117 194.356L75.2882 193.698Z" fill="white"/>
<path d="M63.2313 176.709L66.796 178.395L61.8219 188.914L58.1853 187.195C57.1408 186.701 56.3432 186.066 55.7924 185.29C55.2366 184.516 54.9421 183.642 54.9088 182.666C54.8755 181.691 55.1171 180.657 55.6336 179.565C56.1518 178.469 56.8008 177.624 57.5807 177.029C58.3572 176.432 59.2268 176.104 60.1896 176.044C61.149 175.982 62.1629 176.204 63.2313 176.709ZM64.1107 179.142L62.5441 178.402C61.8113 178.055 61.1369 177.9 60.5209 177.935C59.9033 177.974 59.3449 178.203 58.8458 178.62C58.345 179.041 57.9044 179.654 57.5239 180.459C57.1434 181.264 56.9509 181.99 56.9465 182.637C56.9405 183.288 57.1165 183.859 57.4747 184.351C57.8278 184.845 58.3605 185.26 59.0728 185.597L60.6959 186.364L64.1107 179.142Z" fill="white"/>
<path d="M55.3763 172.095C56.1251 172.547 56.6778 173.094 57.0343 173.734C57.3856 174.376 57.5337 175.072 57.4786 175.822C57.4216 176.575 57.1569 177.343 56.6847 178.124C56.2203 178.892 55.6669 179.478 55.0244 179.882C54.3767 180.288 53.6907 180.493 52.9663 180.497C52.24 180.505 51.5203 180.294 50.8071 179.863C50.3468 179.584 49.9575 179.247 49.6392 178.851C49.3156 178.457 49.0897 178.01 48.9614 177.512C48.8299 177.012 48.8174 176.469 48.9239 175.883C49.0284 175.3 49.2786 174.681 49.6744 174.026L50.0007 173.486L56.1226 177.187L55.4054 178.373L50.9708 175.693C50.7703 176.032 50.662 176.376 50.6459 176.725C50.6278 177.077 50.7008 177.406 50.8648 177.713C51.0256 178.018 51.2745 178.273 51.6117 178.477C51.9715 178.694 52.3405 178.798 52.7186 178.787C53.0947 178.78 53.4442 178.682 53.767 178.492C54.0847 178.303 54.346 178.043 54.5511 177.711L55.1771 176.675C55.4397 176.241 55.5856 175.82 55.6149 175.413C55.6422 175.009 55.5632 174.638 55.3778 174.3C55.1905 173.965 54.9056 173.683 54.5231 173.451C54.267 173.297 54.0137 173.192 53.7631 173.138C53.5106 173.087 53.265 173.087 53.0264 173.138C52.7879 173.188 52.566 173.295 52.3608 173.459L50.829 172.281C51.1953 171.909 51.6223 171.649 52.11 171.501C52.5925 171.355 53.1129 171.329 53.6713 171.423C54.2277 171.52 54.796 171.744 55.3763 172.095Z" fill="white"/>
<path d="M42.3499 170.893L43.9797 171.842C43.9099 172.026 43.8787 172.225 43.8864 172.437C43.891 172.648 43.9512 172.86 44.0672 173.072C44.1832 173.285 44.3691 173.486 44.6251 173.675C44.9694 173.929 45.314 174.069 45.6588 174.093C46.0007 174.114 46.2578 174.005 46.4303 173.765C46.5841 173.563 46.6321 173.342 46.5743 173.102C46.5134 172.859 46.3351 172.565 46.0394 172.219L45.0309 171.079C44.4725 170.445 44.1465 169.854 44.053 169.304C43.9566 168.753 44.0924 168.224 44.4607 167.719C44.79 167.28 45.2076 166.985 45.7133 166.836C46.2137 166.688 46.7592 166.686 47.3497 166.83C47.9401 166.974 48.5279 167.262 49.1129 167.694C49.9722 168.329 50.531 169.019 50.7896 169.766C51.0459 170.516 50.9858 171.251 50.6092 171.971L48.8811 170.935C49.042 170.564 49.0633 170.21 48.9449 169.873C48.8265 169.536 48.5768 169.227 48.196 168.945C47.8029 168.655 47.4279 168.503 47.071 168.489C46.711 168.473 46.4433 168.583 46.2677 168.821C46.1192 169.022 46.0743 169.245 46.1329 169.491C46.1885 169.735 46.3519 170.011 46.6231 170.319L47.6349 171.455C48.2048 172.093 48.5286 172.697 48.6063 173.267C48.6817 173.841 48.5289 174.383 48.1478 174.892C47.8313 175.327 47.4372 175.615 46.9655 175.757C46.4885 175.899 45.9726 175.899 45.4177 175.758C44.8576 175.617 44.2972 175.34 43.7365 174.926C42.9138 174.318 42.3958 173.665 42.1823 172.966C41.9657 172.264 42.0216 171.573 42.3499 170.893Z" fill="white"/>
<path d="M45.651 165.079L39.9448 171.682L38.3885 170.338L44.0947 163.734L45.651 165.079ZM38.3525 171.943C38.599 172.156 38.7405 172.421 38.7771 172.738C38.8111 173.058 38.7278 173.334 38.5272 173.566C38.3241 173.801 38.0632 173.924 37.7443 173.933C37.423 173.946 37.1391 173.846 36.8926 173.633C36.6432 173.417 36.503 173.151 36.4718 172.834C36.4352 172.517 36.5185 172.241 36.7216 172.006C36.9222 171.774 37.1832 171.651 37.5045 171.639C37.8205 171.626 38.1032 171.728 38.3525 171.943Z" fill="white"/>
<path d="M41.4982 156.381C42.0168 156.907 42.3909 157.429 42.6203 157.948C42.8525 158.464 42.9629 158.953 42.9517 159.416C42.9404 159.88 42.8344 160.298 42.6336 160.672L41.0134 159.668C41.0762 159.489 41.1111 159.285 41.1181 159.054C41.1277 158.821 41.0772 158.571 40.9666 158.302C40.856 158.028 40.6557 157.744 40.3658 157.45C39.9562 157.035 39.5159 156.791 39.045 156.718C38.5768 156.642 38.1135 156.83 37.655 157.283L36.4778 158.444L36.5496 158.516C36.7751 158.443 37.0392 158.401 37.342 158.389C37.6421 158.375 37.9631 158.434 38.305 158.565C38.6443 158.693 38.9895 158.935 39.3406 159.291C39.8114 159.768 40.1264 160.312 40.2855 160.921C40.4393 161.53 40.4054 162.17 40.1838 162.841C39.9569 163.511 39.5049 164.18 38.828 164.848C38.1457 165.521 37.4582 165.976 36.7655 166.212C36.0675 166.448 35.4056 166.492 34.7798 166.343C34.1514 166.196 33.6018 165.885 33.131 165.407C32.7719 165.043 32.5387 164.683 32.4314 164.326C32.3187 163.969 32.2795 163.635 32.3137 163.324C32.3453 163.017 32.4007 162.752 32.48 162.53L32.4002 162.449L31.3726 163.463L29.9483 162.018L36.2631 155.79C36.7944 155.266 37.359 154.96 37.9569 154.87C38.5549 154.78 39.1569 154.87 39.7631 155.14C40.3692 155.409 40.9476 155.823 41.4982 156.381ZM37.7887 160.016C37.4829 159.705 37.1467 159.516 36.7802 159.446C36.4137 159.377 36.0331 159.425 35.6382 159.591C35.2433 159.757 34.8476 160.035 34.4512 160.426C34.0601 160.812 33.7735 161.206 33.5912 161.61C33.4063 162.01 33.3407 162.399 33.3943 162.777C33.4426 163.155 33.6223 163.502 33.9335 163.818C34.2553 164.144 34.6089 164.333 34.9943 164.384C35.3796 164.434 35.7752 164.369 36.1809 164.187C36.5839 164.008 36.9728 163.733 37.3477 163.363C37.728 162.988 38.0065 162.604 38.1833 162.212C38.3548 161.819 38.4124 161.435 38.356 161.06C38.2944 160.685 38.1053 160.336 37.7887 160.016Z" fill="white"/>
<path d="M30.8647 157.191L34.8318 153.964L36.1296 155.56L29.3592 161.066L28.1187 159.541L29.2691 158.606L29.2046 158.526C28.6988 158.679 28.1957 158.676 27.6951 158.516C27.1921 158.354 26.7351 158.02 26.324 157.515C25.9439 157.048 25.7128 156.559 25.6306 156.05C25.546 155.538 25.6155 155.032 25.8392 154.533C26.0606 154.031 26.4428 153.561 26.9858 153.124L31.2967 149.618L32.5946 151.213L28.5305 154.519C28.078 154.887 27.8195 155.293 27.7551 155.736C27.6882 156.176 27.8221 156.601 28.1568 157.013C28.3838 157.292 28.6475 157.49 28.9478 157.607C29.2428 157.724 29.555 157.75 29.8846 157.687C30.2118 157.622 30.5385 157.456 30.8647 157.191Z" fill="white"/>
<path d="M25.4991 139.489C25.6608 139.793 25.6924 140.111 25.5939 140.442C25.4953 140.773 25.2913 141.019 24.9818 141.179C24.6825 141.342 24.368 141.372 24.0384 141.268C23.7088 141.165 23.4632 140.961 23.3014 140.656C23.145 140.362 23.1161 140.049 23.2146 139.718C23.3114 139.383 23.5094 139.135 23.8087 138.971C24.0145 138.866 24.2286 138.821 24.451 138.836C24.6716 138.847 24.8764 138.91 25.0657 139.024C25.2498 139.136 25.3942 139.291 25.4991 139.489Z" fill="white"/>
<path d="M21.144 129.964L21.9049 132.082L9.56875 132.162L8.68877 129.713L18.2524 121.917L19.0133 124.035L11.3592 130.087L11.3899 130.173L21.144 129.964ZM16.8254 131.438L14.7503 125.663L16.3437 125.09L18.4188 130.865L16.8254 131.438Z" fill="white"/>
<path d="M9.23486 120.528L10.7753 120.13L12.0288 124.988L10.4883 125.386L9.23486 120.528ZM8.15428 124.709L7.64039 122.717L15.5737 120.67C15.8415 120.601 16.0365 120.508 16.1587 120.39C16.2763 120.27 16.3433 120.135 16.3596 119.986C16.3759 119.837 16.3628 119.68 16.3202 119.515C16.288 119.39 16.2495 119.279 16.2047 119.181C16.1589 119.079 16.1216 119.003 16.0927 118.952L17.5631 118.214C17.6272 118.311 17.7068 118.453 17.802 118.64C17.8961 118.823 17.9833 119.055 18.0635 119.335C18.2069 119.83 18.2476 120.299 18.1857 120.741C18.1202 121.185 17.9416 121.569 17.6501 121.895C17.3576 122.217 16.9468 122.444 16.4177 122.576L8.15428 124.709Z" fill="white"/>
<path d="M16.8477 112.498C16.9889 113.339 16.9264 114.098 16.6601 114.777C16.3938 115.455 15.9568 116.02 15.349 116.472C14.7406 116.92 13.9918 117.218 13.1028 117.368C12.2137 117.517 11.4066 117.48 10.6815 117.256C9.95569 117.029 9.35612 116.638 8.88275 116.083C8.40938 115.529 8.10209 114.832 7.96088 113.991C7.81967 113.151 7.8822 112.391 8.14846 111.713C8.41472 111.034 8.85394 110.471 9.46612 110.022C10.0777 109.57 10.828 109.269 11.717 109.12C12.6061 108.97 13.4116 109.01 14.1337 109.238C14.8551 109.463 15.4525 109.852 15.9258 110.406C16.3992 110.96 16.7065 111.658 16.8477 112.498ZM15.2209 112.76C15.1443 112.304 14.9551 111.944 14.6534 111.68C14.3479 111.416 13.9697 111.246 13.5187 111.168C13.0672 111.086 12.5799 111.089 12.0569 111.177C11.5302 111.266 11.0668 111.422 10.6667 111.647C10.2622 111.869 9.95867 112.154 9.75612 112.503C9.55356 112.852 9.49057 113.254 9.56714 113.71C9.64559 114.177 9.83787 114.544 10.144 114.811C10.4495 115.075 10.8298 115.247 11.2852 115.328C11.7361 115.406 12.225 115.401 12.7517 115.312C13.2746 115.225 13.7365 115.07 14.1372 114.849C14.5374 114.624 14.8387 114.338 15.0412 113.989C15.2394 113.637 15.2993 113.227 15.2209 112.76Z" fill="white"/>
<path d="M16.1317 108.325L7.41752 108.804L7.30968 106.841L8.7904 106.76L8.78479 106.657C8.27556 106.503 7.86948 106.224 7.56653 105.82C7.25981 105.415 7.09044 104.922 7.05844 104.34C7.02602 103.749 7.14242 103.244 7.40763 102.824C7.66885 102.4 8.04073 102.091 8.52327 101.898L8.51828 101.807C8.02357 101.64 7.61991 101.336 7.30733 100.895C6.99075 100.449 6.81511 99.9106 6.7804 99.279C6.73635 98.4771 6.95381 97.8089 7.43277 97.2742C7.91174 96.7396 8.63723 96.4456 9.60925 96.3922L15.4584 96.0708L15.5715 98.1302L10.0401 98.4341C9.49925 98.4638 9.11191 98.6292 8.87808 98.9304C8.64046 99.2318 8.53309 99.5905 8.55594 100.007C8.58317 100.502 8.75953 100.881 9.08505 101.144C9.40658 101.403 9.81318 101.519 10.3049 101.492L15.7398 101.194L15.8505 103.208L10.234 103.516C9.78389 103.541 9.43207 103.697 9.17849 103.984C8.92471 104.267 8.80977 104.626 8.83367 105.061C8.84988 105.356 8.94027 105.621 9.10486 105.855C9.26566 106.088 9.48617 106.27 9.76639 106.399C10.0428 106.528 10.3607 106.582 10.72 106.562L16.0188 106.271L16.1317 108.325Z" fill="white"/>
<path d="M15.8726 97.2328L7.15255 96.8773L7.23632 94.8222L15.9564 95.1777L15.8726 97.2328ZM5.95706 95.7937C5.94379 96.1191 5.82451 96.3948 5.59921 96.6207C5.37013 96.8464 5.10231 96.953 4.79575 96.9405C4.4854 96.9278 4.22714 96.7998 4.02098 96.5563C3.81103 96.3127 3.71269 96.0282 3.72596 95.7027C3.73938 95.3734 3.86055 95.0978 4.08948 94.8759C4.31477 94.6501 4.58259 94.5435 4.89294 94.5561C5.19951 94.5686 5.45776 94.6967 5.66771 94.9403C5.87403 95.1799 5.97048 95.4644 5.95706 95.7937Z" fill="white"/>
<path d="M16.8359 88.1628C16.7313 89.0277 16.4515 89.7474 15.9966 90.3219C15.5422 90.8926 14.96 91.3048 14.2501 91.5585C13.537 91.808 12.7423 91.8797 11.8661 91.7737C10.9862 91.6672 10.2301 91.404 9.59796 90.9841C8.96204 90.5637 8.49337 90.0224 8.19196 89.3602C7.88725 88.6938 7.78608 87.9375 7.88848 87.0914C7.97358 86.3882 8.17863 85.7816 8.50363 85.2715C8.82533 84.7571 9.24077 84.3667 9.74996 84.1002C10.2554 83.8332 10.823 83.715 11.4527 83.7454L11.2165 85.697C10.7895 85.7255 10.4189 85.8714 10.1047 86.1348C9.78715 86.394 9.59858 86.7699 9.53896 87.2625C9.48845 87.6799 9.55689 88.0602 9.74429 88.4034C9.92793 88.7461 10.2178 89.0311 10.6138 89.2584C11.0103 89.4819 11.4999 89.6289 12.0828 89.6994C12.6732 89.7709 13.1913 89.7458 13.6372 89.6243C14.0793 89.5023 14.4339 89.2991 14.7011 89.0147C14.9649 88.7262 15.1226 88.3694 15.174 87.9445C15.2104 87.6436 15.1865 87.3679 15.1024 87.1174C15.0149 86.8626 14.8719 86.6412 14.6734 86.4531C14.4749 86.265 14.2232 86.122 13.9183 86.024L14.1545 84.0724C14.7616 84.1954 15.2831 84.4417 15.7192 84.8111C16.1514 85.1801 16.4685 85.6497 16.6704 86.2197C16.8686 86.7893 16.9238 87.437 16.8359 88.1628Z" fill="white"/>
<path d="M19.5646 75.2463L18.4756 79.0361L7.29179 75.8224L8.40277 71.9561C8.72184 70.8458 9.21982 69.9563 9.89671 69.2877C10.571 68.6144 11.3867 68.1827 12.3438 67.9927C13.301 67.8027 14.3602 67.8745 15.5215 68.2082C16.6865 68.543 17.6254 69.0473 18.3383 69.7211C19.0522 70.3913 19.5164 71.1967 19.7309 72.1372C19.9464 73.0741 19.891 74.1104 19.5646 75.2463ZM17.3048 76.5064L17.7834 74.8409C18.0073 74.0618 18.052 73.3711 17.9177 72.769C17.7797 72.1657 17.4644 71.6514 16.9718 71.2261C16.4755 70.7998 15.7996 70.4637 14.9441 70.2178C14.0886 69.972 13.341 69.899 12.7014 69.999C12.0581 70.0979 11.5226 70.3638 11.0948 70.7966C10.6643 71.2246 10.3403 71.8173 10.1227 72.5745L9.62689 74.3002L17.3048 76.5064Z" fill="white"/>
<path d="M22.8526 66.7503C22.5266 67.5623 22.0763 68.1958 21.5017 68.6509C20.9251 69.101 20.2621 69.3593 19.5129 69.4258C18.7602 69.491 17.9603 69.3535 17.1132 69.0133C16.2801 68.6788 15.6124 68.2271 15.1103 67.6581C14.606 67.0842 14.2931 66.4401 14.1717 65.726C14.0467 65.0105 14.1395 64.2661 14.45 63.4928C14.6504 62.9936 14.9204 62.5551 15.2599 62.1771C15.5973 61.7942 16.0014 61.4993 16.4723 61.2924C16.9445 61.082 17.4785 60.9821 18.0743 60.9928C18.6665 61.002 19.3177 61.1491 20.0277 61.4342L20.613 61.6692L17.9476 68.3075L16.6611 67.7909L18.5919 62.9823C18.2249 62.839 17.868 62.7875 17.5211 62.8279C17.1708 62.8668 16.8573 62.992 16.5806 63.2033C16.3053 63.4112 16.0942 63.6979 15.9474 64.0634C15.7908 64.4536 15.7481 64.8344 15.8193 65.2059C15.8871 65.576 16.0407 65.905 16.2802 66.193C16.5175 66.4761 16.8166 66.6921 17.1772 66.841L18.3003 67.2919C18.7713 67.4811 19.2101 67.5572 19.6167 67.5205C20.0198 67.4823 20.3731 67.3446 20.6766 67.1072C20.9765 66.8685 21.2098 66.5417 21.3763 66.1269C21.4878 65.8492 21.5501 65.5824 21.5631 65.3264C21.5726 65.0689 21.5331 64.8266 21.4448 64.5992C21.3565 64.3719 21.215 64.1702 21.0204 63.9941L21.9363 62.2924C22.3622 62.594 22.6874 62.9736 22.9119 63.4311C23.1342 63.8836 23.244 64.393 23.2411 64.9593C23.2348 65.5241 23.1053 66.1211 22.8526 66.7503Z" fill="white"/>
<path d="M21.9394 53.7005L21.2651 55.462C21.0724 55.4227 20.8716 55.4239 20.6628 55.4658C20.4557 55.5042 20.2565 55.5978 20.0652 55.7466C19.8739 55.8953 19.7056 56.1112 19.5603 56.3943C19.3648 56.7751 19.283 57.1376 19.3149 57.4818C19.3486 57.8227 19.4977 58.0589 19.7623 58.1905C19.9863 58.3097 20.2124 58.3214 20.4404 58.2256C20.6701 58.1264 20.9317 57.903 21.2251 57.5554L22.188 56.3764C22.7235 55.7231 23.2547 55.3061 23.7818 55.1253C24.3106 54.9412 24.8539 54.9901 25.4117 55.2722C25.8986 55.5264 26.2564 55.891 26.4851 56.3661C26.7122 56.8361 26.8022 57.3741 26.7552 57.98C26.7081 58.586 26.5185 59.2125 26.1863 59.8595C25.6985 60.8098 25.107 61.4727 24.4118 61.8482C23.7133 62.2219 22.9783 62.2811 22.2068 62.0255L22.9509 60.153C23.3429 60.252 23.6956 60.216 24.0092 60.0448C24.3227 59.8736 24.5876 59.5774 24.8038 59.1562C25.0269 58.7215 25.1167 58.3269 25.073 57.9724C25.0311 57.6145 24.8787 57.368 24.6158 57.2331C24.3934 57.119 24.1656 57.1106 23.9325 57.2081C23.7011 57.3022 23.455 57.508 23.1941 57.8254L22.2363 59.007C21.699 59.6722 21.155 60.0891 20.6043 60.2577C20.0503 60.4246 19.4911 60.3611 18.9267 60.0671C18.4464 59.8248 18.0985 59.4823 17.883 59.0396C17.6658 58.5917 17.5823 58.0826 17.6324 57.5122C17.6808 56.9368 17.8642 56.339 18.1825 55.719C18.6496 54.8091 19.2109 54.1925 19.8666 53.8691C20.524 53.5423 21.2149 53.4861 21.9394 53.7005Z" fill="white"/>
<path d="M28.2095 56.0213L20.7728 51.4541L21.8492 49.7014L29.286 54.2687L28.2095 56.0213ZM20.2585 49.9247C20.088 50.2023 19.8493 50.3846 19.5425 50.4717C19.2323 50.5569 18.9466 50.5192 18.6851 50.3586C18.4204 50.1961 18.2576 49.9582 18.1965 49.6451C18.1322 49.33 18.1853 49.0337 18.3557 48.7561C18.5282 48.4753 18.7685 48.2939 19.0766 48.212C19.3835 48.1249 19.6693 48.1626 19.934 48.3251C20.1954 48.4857 20.3583 48.7235 20.4226 49.0386C20.4857 49.3485 20.431 49.6438 20.2585 49.9247Z" fill="white"/>
<path d="M36.1243 50.5211C35.6889 51.1177 35.2338 51.5711 34.759 51.8811C34.2873 52.1933 33.8219 52.3812 33.3628 52.4448C32.9038 52.5084 32.4737 52.4712 32.0726 52.3332L32.802 50.5724C32.9888 50.6056 33.1964 50.607 33.4248 50.5768C33.6563 50.5488 33.8957 50.4585 34.1429 50.306C34.3955 50.1527 34.6435 49.9093 34.8869 49.5758C35.2308 49.1046 35.4007 48.6308 35.3968 48.1542C35.3959 47.68 35.1354 47.253 34.6152 46.8734L33.2797 45.8987L33.2194 45.9813C33.3282 46.1921 33.4126 46.4459 33.4725 46.7429C33.5347 47.0368 33.5287 47.363 33.4546 47.7216C33.3827 48.0771 33.1994 48.4568 32.9047 48.8607C32.5094 49.4023 32.0241 49.8007 31.4485 50.0559C30.8722 50.3059 30.2352 50.3756 29.5375 50.265C28.8389 50.1491 28.1057 49.8109 27.3377 49.2504C26.5636 48.6855 26.0041 48.0802 25.6593 47.4347C25.3137 46.7838 25.1639 46.1376 25.2101 45.4961C25.2532 44.8523 25.4724 44.2596 25.8676 43.718C26.1691 43.3049 26.4873 43.0167 26.8223 42.8532C27.1565 42.6844 27.4796 42.5919 27.7915 42.5758C28.1004 42.5573 28.3707 42.5693 28.6023 42.6118L28.6693 42.52L27.5035 41.6692L28.6993 40.0307L35.8636 45.2593C36.4664 45.6992 36.8601 46.207 37.0449 46.7826C37.2297 47.3583 37.2381 47.9669 37.0699 48.6086C36.9018 49.2502 36.5866 49.8877 36.1243 50.5211ZM31.9395 47.4459C32.1963 47.094 32.3295 46.7317 32.339 46.3588C32.3485 45.9859 32.2396 45.618 32.0121 45.255C31.7846 44.892 31.446 44.5464 30.9962 44.2182C30.5525 43.8944 30.1171 43.675 29.6898 43.5602C29.2647 43.4422 28.8699 43.4402 28.5055 43.554C28.1402 43.6626 27.8269 43.8959 27.5657 44.2538C27.2955 44.6241 27.1663 45.0034 27.1782 45.392C27.1901 45.7805 27.3186 46.1603 27.5636 46.5313C27.8055 46.9002 28.1392 47.2398 28.5645 47.5502C28.9959 47.865 29.4195 48.0781 29.8354 48.1893C30.2505 48.2953 30.6387 48.2902 31.0001 48.1741C31.3607 48.0527 31.6738 47.81 31.9395 47.4459Z" fill="white"/>
<path d="M33.6117 40.1571L37.4356 43.5523L36.07 45.0903L29.5439 39.2959L30.8491 37.8258L31.958 38.8104L32.0259 38.734C31.7938 38.2594 31.716 37.7623 31.7925 37.2426C31.8715 36.72 32.1272 36.2152 32.5598 35.728C32.9597 35.2776 33.4043 34.9708 33.8937 34.8076C34.3856 34.6415 34.8959 34.6287 35.4248 34.769C35.9562 34.9065 36.4812 35.208 36.9999 35.6736L41.1552 39.363L39.7896 40.901L35.8722 37.4229C35.436 37.0356 34.9941 36.8458 34.5464 36.8536C34.1013 36.8586 33.7027 37.0594 33.3506 37.4559C33.1117 37.725 32.9587 38.0172 32.8916 38.3324C32.8241 38.6423 32.848 38.9548 32.9633 39.2699C33.0812 39.5822 33.2973 39.8779 33.6117 40.1571Z" fill="white"/>
<path d="M46.3857 35.0381C46.1237 35.2622 45.8204 35.3622 45.4757 35.338C45.1311 35.3138 44.8469 35.1681 44.6232 34.9008C44.3988 34.6443 44.3013 34.3438 44.3308 33.9996C44.3603 33.6553 44.506 33.3711 44.7679 33.1471C45.0212 32.9304 45.3202 32.8341 45.6649 32.8583C46.0125 32.88 46.2985 33.0191 46.523 33.2757C46.6703 33.4538 46.7609 33.6529 46.7948 33.8732C46.8316 34.091 46.8149 34.3046 46.7449 34.514C46.6752 34.7182 46.5555 34.8929 46.3857 35.0381Z" fill="white"/>
<path d="M53.4949 29.5087L47.2411 19.6957L50.921 17.3506C51.6748 16.8701 52.3969 16.6076 53.0871 16.563C53.7805 16.5163 54.415 16.6555 54.9904 16.9805C55.567 17.3003 56.0538 17.7716 56.4508 18.3945C56.8518 19.0238 57.0755 19.6673 57.1218 20.325C57.1682 20.9827 57.0222 21.617 56.6838 22.2279C56.3435 22.8356 55.7948 23.3806 55.0377 23.8631L52.5988 25.4174L51.6675 23.956L53.8668 22.5544C54.3076 22.2734 54.6197 21.9667 54.8031 21.6343C54.9865 21.3018 55.0597 20.9586 55.0229 20.6048C54.9893 20.249 54.8615 19.8969 54.6396 19.5488C54.4177 19.2006 54.1536 18.9377 53.8473 18.7601C53.5441 18.5805 53.2036 18.5078 52.8256 18.542C52.4489 18.571 52.0385 18.727 51.5945 19.01L49.9653 20.0482L55.2725 28.3758L53.4949 29.5087Z" fill="white"/>
<path d="M60.959 25.0481L56.9433 17.2996L58.714 16.3819L59.3833 17.6733L59.464 17.6315C59.3734 17.111 59.4369 16.6408 59.6545 16.2209C59.8736 15.7959 60.2052 15.4683 60.6491 15.2383C60.75 15.186 60.8653 15.1326 60.9949 15.0782C61.1262 15.0187 61.2383 14.9756 61.3311 14.9488L62.2016 16.6287C62.1103 16.6419 61.9754 16.682 61.7968 16.7489C61.6198 16.8108 61.4539 16.8818 61.2992 16.962C60.9663 17.1345 60.7045 17.362 60.5137 17.6443C60.3246 17.9215 60.2197 18.2254 60.1991 18.556C60.1785 18.8867 60.2536 19.2168 60.4244 19.5464L62.7852 24.1017L60.959 25.0481Z" fill="white"/>
<path d="M70.3416 20.9179C69.554 21.2436 68.7997 21.3526 68.0789 21.2448C67.358 21.1371 66.7095 20.8376 66.1333 20.3462C65.5606 19.8534 65.1021 19.1904 64.7576 18.3573C64.4131 17.5242 64.2688 16.7292 64.3248 15.9724C64.3843 15.2141 64.6311 14.5423 65.0654 13.9569C65.4997 13.3716 66.1106 12.916 66.8982 12.5904C67.6858 12.2647 68.4401 12.1558 69.1609 12.2635C69.8818 12.3712 70.5293 12.6732 71.1034 13.1695C71.681 13.6644 72.1421 14.3284 72.4866 15.1615C72.831 15.9946 72.9728 16.7886 72.9119 17.5434C72.8545 18.2967 72.6087 18.966 72.1744 19.5514C71.7401 20.1368 71.1292 20.5923 70.3416 20.9179ZM69.7225 19.3909C70.1495 19.2143 70.4581 18.9494 70.6481 18.5962C70.8367 18.2395 70.9186 17.8327 70.8936 17.3757C70.8721 16.9173 70.76 16.4431 70.5574 15.953C70.3533 15.4595 70.097 15.0428 69.7885 14.7031C69.482 14.3585 69.1361 14.1265 68.7506 14.0071C68.3652 13.8878 67.9589 13.9164 67.5318 14.093C67.0943 14.2739 66.7795 14.5434 66.5873 14.9016C66.3987 15.2583 66.3159 15.6676 66.3388 16.1295C66.3638 16.5865 66.4783 17.0617 66.6824 17.5553C66.885 18.0454 67.1389 18.461 67.4439 18.8021C67.7524 19.1418 68.0994 19.3714 68.4848 19.4907C68.8724 19.6051 69.2849 19.5718 69.7225 19.3909Z" fill="white"/>
<path d="M77.4911 18.5051C76.8347 18.7033 76.1964 18.7121 75.576 18.5314C74.9556 18.3508 74.3981 17.985 73.9033 17.4341C73.4085 16.8831 73.0226 16.1489 72.7456 15.2315C72.4652 14.3032 72.381 13.474 72.4929 12.7438C72.6073 12.0089 72.8763 11.3994 73.2999 10.9154C73.7225 10.4277 74.2547 10.087 74.8965 9.89317C75.386 9.74535 75.8137 9.70721 76.1795 9.77875C76.5443 9.84666 76.8542 9.96874 77.1092 10.145C77.3631 10.3176 77.5715 10.4901 77.7343 10.6625L77.8159 10.6378L76.5578 6.47138L78.5322 5.87517L81.896 17.0147L79.9597 17.5995L79.5622 16.2832L79.4425 16.3193C79.4023 16.553 79.3206 16.8131 79.1974 17.0996C79.0731 17.3825 78.8773 17.6513 78.61 17.9061C78.3427 18.1609 77.9697 18.3606 77.4911 18.5051ZM77.5526 16.7238C77.9696 16.5979 78.2911 16.3781 78.5169 16.0646C78.7416 15.7475 78.8688 15.3629 78.8985 14.9107C78.9281 14.4586 78.8614 13.9624 78.6982 13.4221C78.5351 12.8818 78.3171 12.4352 78.0444 12.0823C77.7753 11.7284 77.4605 11.4851 77.0999 11.3526C76.7431 11.219 76.3525 11.2163 75.9282 11.3444C75.4895 11.4769 75.1577 11.7017 74.933 12.0188C74.7082 12.336 74.5823 12.7182 74.5552 13.1656C74.528 13.613 74.5928 14.096 74.7493 14.6146C74.907 15.1367 75.1221 15.5802 75.3945 15.9451C75.6694 16.3052 75.9893 16.5588 76.3542 16.7058C76.7216 16.8481 77.1211 16.8541 77.5526 16.7238Z" fill="white"/>
<path d="M87.505 12.3186L86.5279 7.35712L88.546 6.9597L90.2322 15.5225L88.2755 15.9079L87.9758 14.3859L87.8866 14.4035C87.7878 14.921 87.5472 15.3757 87.165 15.7675C86.7864 16.1586 86.2757 16.4175 85.6327 16.5441C85.0715 16.6546 84.5509 16.6278 84.0707 16.4637C83.5936 16.2952 83.187 15.995 82.851 15.5631C82.5143 15.1276 82.2786 14.5679 82.1439 13.884L81.0702 8.43192L83.0883 8.03449L84.1005 13.1744C84.2073 13.717 84.4409 14.1189 84.8012 14.3799C85.1614 14.641 85.5831 14.7239 86.0663 14.6288C86.3636 14.5703 86.6374 14.4411 86.8876 14.2412C87.1377 14.0414 87.3239 13.7808 87.4459 13.4595C87.5709 13.1338 87.5906 12.7535 87.505 12.3186Z" fill="white"/>
<path d="M94.5986 15.4192C93.7316 15.5052 92.9683 15.3886 92.3086 15.0696C91.6527 14.7501 91.1237 14.2716 90.7217 13.6339C90.3231 12.9921 90.0803 12.232 89.9932 11.3537C89.9058 10.4717 89.9982 9.6765 90.2706 8.96814C90.5426 8.25602 90.969 7.68084 91.5498 7.24261C92.134 6.80025 92.8501 6.53702 93.6983 6.45294C94.4031 6.38306 95.0399 6.45126 95.6084 6.65753C96.1804 6.85967 96.6518 7.18025 97.0227 7.61929C97.3932 8.05456 97.6321 8.58281 97.7394 9.20405L95.7831 9.39799C95.6624 8.98744 95.4394 8.65745 95.1139 8.40804C94.7919 8.15448 94.384 8.05218 93.8902 8.10113C93.4718 8.14261 93.1155 8.29213 92.8213 8.54969C92.5267 8.80347 92.3116 9.14835 92.1759 9.58431C92.044 10.0199 92.007 10.5298 92.0649 11.1141C92.1236 11.7059 92.2607 12.2062 92.4763 12.6149C92.6916 13.0199 92.967 13.3218 93.3027 13.5208C93.6417 13.7155 94.0242 13.7918 94.4502 13.7496C94.7517 13.7197 95.0156 13.6364 95.2419 13.4998C95.4716 13.359 95.6566 13.1713 95.797 12.9366C95.9374 12.7019 96.0223 12.4251 96.0516 12.1063L98.0079 11.9124C98.0198 12.5316 97.8929 13.0942 97.6271 13.6002C97.3609 14.1024 96.9716 14.514 96.4591 14.8351C95.9463 15.1524 95.3261 15.3471 94.5986 15.4192Z" fill="white"/>
<path d="M103.239 6.26041L103.26 7.85119L98.2431 7.91516L98.2228 6.32438L103.239 6.26041ZM99.4347 4.21785L101.491 4.19163L101.596 12.3841C101.599 12.6606 101.644 12.8722 101.729 13.0189C101.818 13.1617 101.933 13.2587 102.074 13.3099C102.214 13.3612 102.37 13.3857 102.54 13.3835C102.669 13.3819 102.786 13.3709 102.892 13.3506C103.002 13.3303 103.085 13.3122 103.142 13.2963L103.509 14.8997C103.399 14.939 103.243 14.9827 103.039 15.0307C102.839 15.0787 102.593 15.1084 102.301 15.1197C101.786 15.1414 101.321 15.0697 100.906 14.9045C100.491 14.7355 100.16 14.4708 99.9131 14.1103C99.6699 13.7497 99.5466 13.2967 99.5435 12.7512L99.4347 4.21785Z" fill="white"/>
<path d="M111.68 15.8052C111.337 15.7658 111.058 15.6115 110.841 15.3425C110.624 15.0735 110.538 14.7661 110.581 14.4203C110.617 14.0812 110.77 13.8053 111.043 13.5927C111.315 13.3801 111.622 13.2935 111.965 13.333C112.296 13.3711 112.57 13.5247 112.787 13.7937C113.007 14.0632 113.1 14.3675 113.065 14.7066C113.035 14.9357 112.95 15.1376 112.812 15.3123C112.677 15.4874 112.51 15.6206 112.308 15.7118C112.111 15.7997 111.902 15.8308 111.68 15.8052Z" fill="white"/>
<path d="M130.612 7.8619L132.65 8.40014L130.709 15.7504C130.496 16.5561 130.119 17.2145 129.576 17.7255C129.038 18.2375 128.38 18.5752 127.605 18.7386C126.83 18.8983 125.985 18.8573 125.069 18.6155C124.15 18.3727 123.393 17.9906 122.798 17.4691C122.204 16.944 121.799 16.3258 121.583 15.6146C121.368 14.9034 121.366 14.1449 121.579 13.3392L123.52 5.98894L125.558 6.52718L123.662 13.7072C123.538 14.1759 123.531 14.6205 123.639 15.0409C123.751 15.4623 123.968 15.8271 124.29 16.1355C124.613 16.4402 125.033 16.6608 125.549 16.7971C126.066 16.9335 126.54 16.949 126.971 16.8435C127.407 16.7353 127.776 16.5252 128.078 16.2131C128.379 15.9011 128.592 15.5106 128.716 15.0419L130.612 7.8619Z" fill="white"/>
<path d="M135.233 9.60013L136.098 14.4968L136.183 14.5294L140.113 11.4737L142.357 12.3351L136.924 16.4817L138.239 23.2187L135.958 22.3431L135.057 17.4627L134.972 17.4301L131.036 20.4532L128.766 19.5816L134.283 15.4676L132.979 8.73463L135.233 9.60013Z" fill="white"/>
<path d="M152.039 21.536C152.244 21.0808 152.246 20.6345 152.046 20.1969C151.849 19.7613 151.48 19.3857 150.941 19.0702C150.561 18.8484 150.203 18.7154 149.864 18.6711C149.526 18.6269 149.227 18.6608 148.969 18.7728C148.71 18.8849 148.506 19.0659 148.355 19.3157C148.233 19.525 148.174 19.7342 148.179 19.9433C148.187 20.1544 148.243 20.3626 148.347 20.568C148.452 20.7702 148.586 20.9665 148.746 21.157C148.907 21.3475 149.076 21.5275 149.253 21.697L150.057 22.4831C150.385 22.7932 150.68 23.1257 150.942 23.4807C151.207 23.8377 151.411 24.2118 151.556 24.6033C151.703 24.9966 151.764 25.4029 151.738 25.8222C151.712 26.2415 151.572 26.6687 151.318 27.1035C150.974 27.6921 150.52 28.1224 149.957 28.3945C149.396 28.6633 148.758 28.7572 148.042 28.6763C147.331 28.594 146.573 28.3177 145.769 27.8473C144.987 27.3903 144.379 26.8725 143.945 26.294C143.515 25.7175 143.273 25.1024 143.221 24.4487C143.172 23.797 143.33 23.13 143.693 22.4477L145.484 23.4945C145.305 23.8597 145.243 24.2138 145.297 24.5569C145.351 24.8999 145.496 25.2176 145.733 25.5099C145.974 25.8041 146.284 26.0621 146.663 26.2839C147.059 26.5152 147.44 26.6591 147.806 26.7153C148.178 26.7703 148.511 26.7412 148.805 26.6281C149.101 26.5117 149.335 26.3106 149.507 26.0247C149.656 25.7612 149.706 25.5005 149.655 25.2425C149.606 24.9813 149.479 24.714 149.274 24.4409C149.075 24.1664 148.822 23.8782 148.516 23.5763L147.546 22.6137C146.843 21.9174 146.377 21.2129 146.149 20.5002C145.926 19.7862 146.024 19.0695 146.445 18.3501C146.791 17.7583 147.254 17.3337 147.835 17.0764C148.419 16.821 149.06 16.7332 149.759 16.813C150.461 16.8896 151.163 17.1334 151.866 17.5445C152.579 17.9613 153.13 18.4508 153.521 19.0129C153.918 19.5736 154.141 20.1629 154.192 20.7808C154.245 21.3954 154.111 21.9885 153.79 22.5599L152.039 21.536Z" fill="white"/>
<path d="M158.309 25.6459L157.386 26.9422L153.298 24.0336L154.221 22.7373L158.309 25.6459ZM156.442 21.7517L158.118 22.9441L153.368 29.62C153.208 29.8453 153.119 30.0423 153.101 30.211C153.089 30.3788 153.124 30.5249 153.208 30.6494C153.291 30.7738 153.402 30.8855 153.541 30.9843C153.646 31.0589 153.747 31.1193 153.845 31.1653C153.945 31.2136 154.023 31.248 154.078 31.2686L153.428 32.7797C153.317 32.7469 153.165 32.6897 152.972 32.6082C152.782 32.5288 152.566 32.4077 152.324 32.2448C151.895 31.9585 151.562 31.6262 151.324 31.248C151.089 30.8666 150.978 30.4575 150.991 30.0207C151.008 29.5861 151.175 29.1476 151.495 28.7054L156.442 21.7517Z" fill="white"/>
<path d="M154.911 34.1508L160.499 27.4472L162.031 28.7242L161.099 29.8415L161.169 29.8997C161.614 29.6146 162.072 29.491 162.543 29.5289C163.02 29.5663 163.45 29.7451 163.835 30.0652C163.922 30.138 164.016 30.2236 164.116 30.3221C164.222 30.4201 164.305 30.5067 164.366 30.5818L163.154 32.0351C163.106 31.9561 163.017 31.8472 162.886 31.7085C162.761 31.5693 162.631 31.4439 162.497 31.3323C162.209 31.0922 161.898 30.9389 161.564 30.8724C161.235 30.8054 160.914 30.8264 160.601 30.9355C160.289 31.0446 160.013 31.2417 159.776 31.5268L156.49 35.4678L154.911 34.1508Z" fill="white"/>
<path d="M161.429 40.2931C161.036 39.9038 160.751 39.4832 160.575 39.0314C160.404 38.5795 160.365 38.1243 160.457 37.6659C160.551 37.2101 160.8 36.7791 161.202 36.3729C161.549 36.0231 161.9 35.7979 162.256 35.6973C162.612 35.5966 162.969 35.5883 163.329 35.6724C163.688 35.7565 164.042 35.9023 164.391 36.1096C164.746 36.317 165.089 36.5539 165.423 36.8202C165.823 37.1425 166.151 37.4009 166.407 37.5953C166.665 37.787 166.877 37.9012 167.043 37.938C167.214 37.9747 167.37 37.9232 167.508 37.7833L167.532 37.759C167.834 37.455 167.977 37.1303 167.962 36.7849C167.947 36.4394 167.77 36.0987 167.431 35.7627C167.073 35.4081 166.712 35.2048 166.348 35.1528C165.986 35.1035 165.663 35.1491 165.38 35.2897L164.208 33.744C164.689 33.4741 165.178 33.3353 165.676 33.3277C166.177 33.3175 166.669 33.4264 167.152 33.6547C167.638 33.8802 168.098 34.2076 168.531 34.6369C168.829 34.9329 169.092 35.2625 169.319 35.6258C169.545 35.989 169.701 36.3727 169.786 36.7768C169.873 37.1782 169.855 37.5894 169.731 38.0105C169.61 38.4342 169.345 38.8519 168.937 39.2635L164.825 43.4119L163.421 42.02L164.265 41.1685L164.216 41.1205C163.957 41.2047 163.672 41.2421 163.361 41.2328C163.056 41.2234 162.737 41.1445 162.404 40.9959C162.076 40.8474 161.751 40.6131 161.429 40.2931ZM162.872 39.5957C163.165 39.8864 163.477 40.0805 163.806 40.1781C164.139 40.2731 164.459 40.281 164.767 40.202C165.077 40.1256 165.346 39.9731 165.572 39.7444L166.296 39.014C166.213 39.0064 166.101 38.964 165.958 38.887C165.819 38.8126 165.67 38.7208 165.511 38.6117C165.353 38.5026 165.198 38.3921 165.048 38.2803C164.897 38.1685 164.767 38.0713 164.657 37.9888C164.409 37.8024 164.166 37.6575 163.927 37.5541C163.689 37.4507 163.459 37.4102 163.24 37.4326C163.023 37.4523 162.821 37.5563 162.635 37.7446C162.368 38.0136 162.265 38.3141 162.325 38.6459C162.386 38.9778 162.568 39.2944 162.872 39.5957Z" fill="white"/>
<path d="M174.917 42.0227L173.704 43.0521L170.458 39.2271L171.671 38.1976L174.917 42.0227ZM174.067 37.789L175.397 39.3571L169.151 44.6589C168.94 44.8378 168.805 45.0068 168.747 45.1659C168.693 45.3255 168.692 45.4759 168.742 45.617C168.792 45.7582 168.873 45.8938 168.983 46.0237C169.066 46.1219 169.149 46.2053 169.232 46.2739C169.318 46.3454 169.385 46.3979 169.433 46.4314L168.432 47.7362C168.332 47.6769 168.198 47.5841 168.031 47.4575C167.867 47.3339 167.687 47.1633 167.492 46.9458C167.148 46.5629 166.907 46.1589 166.769 45.7338C166.635 45.3063 166.628 44.8824 166.748 44.4623C166.871 44.045 167.142 43.6614 167.56 43.3113L174.067 37.789Z" fill="white"/>
<path d="M171.601 52.6145C171.094 51.9012 170.805 51.1798 170.733 50.4505C170.666 49.722 170.807 49.0246 171.156 48.3584C171.508 47.69 172.057 47.0915 172.801 46.5628C173.533 46.0428 174.274 45.7255 175.024 45.6107C175.779 45.4968 176.49 45.5819 177.156 45.8658C177.826 46.1476 178.402 46.6281 178.885 47.3075C179.196 47.7459 179.419 48.2102 179.553 48.7002C179.693 49.1911 179.723 49.6905 179.642 50.1984C179.564 50.7094 179.359 51.2127 179.028 51.7081C178.7 52.2013 178.224 52.6695 177.6 53.1126L177.086 53.4779L172.943 47.6463L174.073 46.8434L177.075 51.0677C177.393 50.8365 177.63 50.564 177.783 50.2505C177.94 49.9347 178.004 49.6033 177.976 49.2563C177.95 48.9123 177.823 48.5797 177.595 48.2586C177.351 47.9158 177.054 47.674 176.703 47.5331C176.355 47.39 175.995 47.3413 175.624 47.387C175.257 47.4336 174.914 47.5684 174.593 47.7912L173.607 48.4921C173.193 48.7861 172.892 49.1141 172.703 49.476C172.517 49.8357 172.442 50.2074 172.477 50.591C172.516 50.9724 172.665 51.3453 172.924 51.7097C173.097 51.9536 173.288 52.1503 173.496 52.2997C173.708 52.4468 173.933 52.5447 174.172 52.5933C174.411 52.6419 174.657 52.632 174.91 52.5635L175.846 54.2541C175.362 54.4493 174.867 54.5176 174.361 54.4591C173.86 54.4014 173.372 54.2183 172.898 53.9097C172.426 53.599 171.994 53.1672 171.601 52.6145Z" fill="white"/>
<path d="M172.95 61.1439C172.582 60.5037 172.353 59.9037 172.262 59.3439C172.169 58.786 172.186 58.2844 172.314 57.8391C172.443 57.3938 172.651 57.0159 172.94 56.7055L174.253 58.0872C174.147 58.2444 174.061 58.4335 173.996 58.6545C173.928 58.8774 173.913 59.1328 173.952 59.4207C173.989 59.7138 174.111 60.0393 174.317 60.3971C174.608 60.9028 174.972 61.2506 175.409 61.4405C175.842 61.6323 176.338 61.5677 176.897 61.2466L178.33 60.4221L178.279 60.3334C178.042 60.3473 177.776 60.3212 177.48 60.2554C177.186 60.1928 176.89 60.0549 176.593 59.8415C176.297 59.6314 176.025 59.3097 175.775 58.8763C175.441 58.2951 175.274 57.6898 175.275 57.0602C175.28 56.432 175.475 55.8216 175.86 55.229C176.25 54.6377 176.856 54.105 177.681 53.6309C178.511 53.153 179.292 52.8876 180.021 52.8347C180.757 52.7833 181.408 52.9089 181.975 53.2117C182.546 53.5126 182.999 53.9536 183.333 54.5348C183.588 54.978 183.722 55.3859 183.736 55.7584C183.754 56.1324 183.707 56.4651 183.595 56.7568C183.487 57.0465 183.366 57.2886 183.233 57.483L183.29 57.5815L184.541 56.8618L185.552 58.62L177.865 63.043C177.218 63.4151 176.594 63.5687 175.993 63.5037C175.392 63.4387 174.832 63.1991 174.314 62.7848C173.796 62.3705 173.341 61.8236 172.95 61.1439ZM177.46 58.569C177.678 58.9466 177.955 59.2154 178.291 59.3756C178.628 59.5358 179.009 59.5856 179.433 59.5252C179.857 59.4648 180.31 59.2957 180.793 59.018C181.269 58.7441 181.646 58.4353 181.925 58.0915C182.205 57.751 182.368 57.3911 182.411 57.0118C182.461 56.6339 182.375 56.2529 182.154 55.8688C181.925 55.4715 181.631 55.1994 181.271 55.0524C180.911 54.9055 180.512 54.8686 180.073 54.9418C179.638 55.0131 179.192 55.18 178.736 55.4425C178.273 55.7089 177.906 56.0095 177.636 56.3443C177.37 56.6805 177.217 57.0374 177.176 57.4148C177.141 57.7935 177.235 58.1783 177.46 58.569Z" fill="white"/>
<path d="M175.484 65.8178C175.368 65.5626 175.282 65.3169 175.224 65.0809C175.165 64.8498 175.132 64.6587 175.126 64.5076L176.782 64.2794C176.827 64.5879 176.899 64.8482 177 65.0605C177.1 65.2727 177.253 65.4301 177.458 65.5327C177.661 65.6403 177.938 65.6828 178.29 65.6603L178.792 65.6256L185.594 59.0591L186.496 61.0455L181.328 65.603L181.365 65.6858L188.2 64.7959L189.105 66.7875L178.752 67.6532C178.264 67.6961 177.814 67.6632 177.403 67.5547C176.988 67.4477 176.621 67.2526 176.301 66.9695C175.979 66.6914 175.707 66.3075 175.484 65.8178Z" fill="white"/>
<path d="M182.931 76.8095C182.832 76.4792 182.864 76.1614 183.026 75.8562C183.188 75.5511 183.437 75.3506 183.772 75.2548C184.098 75.1539 184.412 75.1868 184.714 75.3536C185.017 75.5204 185.217 75.769 185.316 76.0994C185.411 76.4188 185.377 76.7312 185.215 77.0363C185.054 77.3451 184.811 77.5499 184.485 77.6509C184.263 77.7132 184.044 77.7151 183.829 77.6566C183.615 77.6017 183.427 77.4997 183.264 77.3506C183.105 77.2041 182.994 77.0237 182.931 76.8095Z" fill="white"/>
<path d="M194.176 94.2614L193.867 92.159C194.203 92.0483 194.492 91.8929 194.734 91.6926C194.981 91.4918 195.18 91.2577 195.332 90.9903C195.484 90.723 195.584 90.4287 195.633 90.1076C195.686 89.7898 195.686 89.4547 195.634 89.1024C195.542 88.4766 195.304 87.9451 194.918 87.5079C194.536 87.0702 194.023 86.7588 193.379 86.574C192.739 86.3885 191.987 86.3594 191.121 86.4866C190.24 86.6161 189.518 86.8619 188.955 87.2242C188.396 87.5896 187.998 88.0348 187.762 88.5597C187.529 89.0877 187.459 89.6628 187.55 90.2849C187.601 90.6297 187.693 90.9454 187.827 91.232C187.965 91.5217 188.142 91.7733 188.357 91.9868C188.573 92.2039 188.824 92.3757 189.111 92.502C189.398 92.6321 189.715 92.7042 190.061 92.7183L190.359 94.8224C189.8 94.8241 189.262 94.7291 188.744 94.5372C188.226 94.3491 187.752 94.0722 187.324 93.7065C186.898 93.3402 186.541 92.8911 186.253 92.3593C185.968 91.8269 185.775 91.2177 185.674 90.5319C185.525 89.5201 185.627 88.5825 185.978 87.7191C186.33 86.8558 186.914 86.1305 187.732 85.5433C188.549 84.9561 189.576 84.5716 190.813 84.3898C192.053 84.2075 193.148 84.2821 194.096 84.6136C195.048 84.9446 195.817 85.4729 196.402 86.1986C196.987 86.9242 197.354 87.7892 197.501 88.7936C197.596 89.4344 197.593 90.0435 197.494 90.6208C197.395 91.1982 197.203 91.7279 196.918 92.2101C196.637 92.6918 196.265 93.1082 195.804 93.4593C195.347 93.8136 194.804 94.081 194.176 94.2614Z" fill="white"/>
<path d="M186.177 94.7267L194.892 94.2601L194.999 96.2515L193.546 96.3293L193.551 96.4201C194.062 96.552 194.465 96.8036 194.758 97.1748C195.055 97.5496 195.217 97.9867 195.243 98.486C195.249 98.5994 195.251 98.7265 195.247 98.867C195.247 99.0112 195.24 99.131 195.226 99.2266L193.337 99.3277C193.362 99.2391 193.381 99.0996 193.394 98.9093C193.411 98.7226 193.414 98.5422 193.405 98.3682C193.385 97.9937 193.285 97.6614 193.107 97.3713C192.932 97.0848 192.698 96.864 192.406 96.709C192.113 96.554 191.781 96.4864 191.41 96.5062L186.287 96.7806L186.177 94.7267Z" fill="white"/>
<path d="M186.073 105.034C186.101 104.16 186.308 103.41 186.692 102.786C187.08 102.166 187.614 101.696 188.296 101.377C188.981 101.059 189.779 100.914 190.692 100.944C191.589 100.973 192.371 101.169 193.037 101.532C193.708 101.899 194.222 102.397 194.58 103.026C194.943 103.656 195.11 104.387 195.083 105.22C195.066 105.757 194.962 106.262 194.772 106.733C194.586 107.209 194.307 107.624 193.936 107.979C193.564 108.339 193.096 108.615 192.533 108.809C191.973 109.003 191.311 109.088 190.546 109.063L189.916 109.042L190.149 101.893L191.535 101.938L191.366 107.117C191.76 107.126 192.113 107.052 192.425 106.896C192.741 106.739 192.992 106.514 193.18 106.221C193.368 105.931 193.468 105.59 193.481 105.196C193.494 104.776 193.404 104.403 193.21 104.079C193.02 103.754 192.763 103.498 192.439 103.309C192.119 103.124 191.765 103.024 191.375 103.007L190.165 102.968C189.658 102.951 189.219 103.03 188.85 103.203C188.484 103.377 188.199 103.627 187.996 103.954C187.795 104.281 187.688 104.668 187.673 105.115C187.664 105.414 187.697 105.686 187.772 105.931C187.851 106.176 187.971 106.39 188.132 106.574C188.293 106.757 188.495 106.898 188.738 106.997L188.459 108.91C187.956 108.772 187.521 108.526 187.153 108.173C186.789 107.824 186.512 107.383 186.321 106.85C186.133 106.317 186.051 105.712 186.073 105.034Z" fill="white"/>
<path d="M185.399 111.786C185.47 111.237 185.631 110.756 185.883 110.341C186.138 109.931 186.476 109.623 186.896 109.418C187.315 109.216 187.808 109.152 188.376 109.225C188.864 109.288 189.256 109.43 189.552 109.651C189.849 109.873 190.072 110.152 190.224 110.488C190.375 110.825 190.474 111.195 190.522 111.598C190.572 112.006 190.593 112.423 190.584 112.849C190.571 113.363 190.565 113.781 190.566 114.102C190.57 114.423 190.608 114.661 190.68 114.815C190.755 114.974 190.89 115.066 191.085 115.091L191.119 115.095C191.544 115.15 191.889 115.066 192.154 114.845C192.419 114.623 192.583 114.276 192.644 113.802C192.708 113.303 192.65 112.892 192.47 112.571C192.29 112.254 192.057 112.025 191.774 111.885L192.29 110.016C192.796 110.234 193.204 110.538 193.512 110.93C193.825 111.321 194.037 111.778 194.149 112.301C194.265 112.823 194.284 113.387 194.206 113.992C194.152 114.409 194.05 114.818 193.899 115.219C193.748 115.619 193.538 115.976 193.268 116.289C193.003 116.602 192.665 116.837 192.255 116.995C191.845 117.156 191.352 117.199 190.777 117.125L184.984 116.378L185.237 114.417L186.426 114.57L186.435 114.503C186.211 114.348 186.008 114.144 185.826 113.892C185.648 113.643 185.517 113.342 185.433 112.987C185.352 112.637 185.341 112.236 185.399 111.786ZM186.83 112.509C186.777 112.918 186.812 113.283 186.935 113.605C187.061 113.927 187.249 114.186 187.499 114.382C187.748 114.582 188.032 114.703 188.352 114.744L189.372 114.876C189.327 114.805 189.292 114.69 189.267 114.53C189.242 114.374 189.224 114.2 189.214 114.008C189.205 113.815 189.199 113.625 189.196 113.438C189.193 113.251 189.192 113.088 189.19 112.95C189.188 112.641 189.156 112.36 189.093 112.107C189.03 111.855 188.923 111.648 188.772 111.487C188.624 111.327 188.419 111.23 188.156 111.196C187.78 111.147 187.479 111.248 187.252 111.497C187.025 111.747 186.884 112.084 186.83 112.509Z" fill="white"/>
<path d="M192.218 123.552L190.663 123.213L191.73 118.311L193.285 118.649L192.218 123.552ZM195.064 120.304L194.627 122.314L186.621 120.572C186.351 120.513 186.135 120.509 185.973 120.559C185.814 120.613 185.693 120.703 185.612 120.829C185.53 120.955 185.471 121.101 185.435 121.267C185.407 121.393 185.392 121.51 185.388 121.618C185.383 121.729 185.382 121.814 185.385 121.873L183.74 121.87C183.726 121.754 183.719 121.592 183.718 121.382C183.716 121.176 183.742 120.93 183.797 120.643C183.892 120.137 184.066 119.7 184.321 119.333C184.579 118.966 184.911 118.703 185.318 118.544C185.724 118.388 186.193 118.37 186.725 118.49L195.064 120.304Z" fill="white"/>
<path d="M183.045 123.814L191.421 126.263L190.844 128.237L182.468 125.788L183.045 123.814ZM192.32 127.603C192.412 127.29 192.594 127.051 192.867 126.887C193.144 126.723 193.429 126.684 193.724 126.77C194.022 126.857 194.242 127.044 194.383 127.33C194.528 127.617 194.555 127.917 194.463 128.229C194.371 128.546 194.187 128.784 193.911 128.944C193.638 129.109 193.352 129.148 193.054 129.061C192.76 128.975 192.54 128.788 192.395 128.501C192.253 128.219 192.228 127.919 192.32 127.603Z" fill="white"/>
<path d="M186.816 139.279L179.767 133.268L180.577 131.144L189.838 131.347L189.057 133.397L182.285 132.962L182.253 133.047L187.595 137.235L186.816 139.279Z" fill="white"/>
<path d="M176.472 139.816C176.86 139.031 177.358 138.435 177.966 138.026C178.576 137.622 179.257 137.416 180.009 137.408C180.765 137.402 181.552 137.601 182.37 138.006C183.174 138.404 183.805 138.907 184.261 139.513C184.719 140.124 184.981 140.791 185.047 141.512C185.116 142.235 184.965 142.97 184.595 143.717C184.357 144.199 184.053 144.615 183.686 144.966C183.319 145.321 182.893 145.584 182.408 145.753C181.921 145.926 181.381 145.984 180.787 145.928C180.198 145.872 179.56 145.675 178.874 145.335L178.309 145.056L181.483 138.645L182.725 139.26L180.426 143.904C180.781 144.075 181.133 144.154 181.482 144.141C181.834 144.129 182.156 144.029 182.449 143.84C182.739 143.654 182.972 143.385 183.147 143.032C183.333 142.655 183.406 142.279 183.363 141.903C183.325 141.528 183.197 141.188 182.981 140.883C182.766 140.582 182.485 140.343 182.137 140.167L181.052 139.63C180.598 139.405 180.166 139.295 179.758 139.3C179.353 139.306 178.99 139.416 178.669 139.629C178.351 139.844 178.093 140.151 177.895 140.552C177.762 140.82 177.679 141.081 177.647 141.336C177.617 141.591 177.637 141.836 177.708 142.07C177.778 142.303 177.904 142.515 178.084 142.706L177.038 144.331C176.637 143.997 176.343 143.594 176.154 143.12C175.968 142.652 175.898 142.135 175.945 141.571C175.995 141.008 176.171 140.423 176.472 139.816Z" fill="white"/>
<path d="M169.625 151.037L171.913 147.825L181.39 154.578L179.056 157.854C178.385 158.795 177.62 159.468 176.759 159.873C175.899 160.284 174.986 160.419 174.02 160.28C173.054 160.141 172.079 159.72 171.095 159.019C170.108 158.316 169.391 157.528 168.943 156.655C168.493 155.786 168.323 154.872 168.434 153.913C168.542 152.958 168.939 151.999 169.625 151.037ZM172.175 150.601L171.17 152.012C170.699 152.672 170.427 153.308 170.354 153.921C170.283 154.536 170.409 155.126 170.732 155.691C171.058 156.258 171.584 156.8 172.309 157.316C173.034 157.833 173.714 158.15 174.351 158.269C174.99 158.39 175.584 158.317 176.131 158.052C176.68 157.791 177.182 157.34 177.64 156.699L178.681 155.236L172.175 150.601Z" fill="white"/>
<path d="M166.287 155.239L172.933 160.896L171.6 162.462L164.954 156.805L166.287 155.239ZM173.206 162.486C173.417 162.238 173.681 162.094 173.998 162.056C174.317 162.019 174.594 162.1 174.827 162.299C175.064 162.5 175.188 162.761 175.201 163.079C175.216 163.401 175.118 163.685 174.906 163.933C174.693 164.184 174.428 164.326 174.11 164.36C173.794 164.399 173.517 164.318 173.281 164.116C173.047 163.918 172.923 163.657 172.908 163.336C172.893 163.02 172.992 162.737 173.206 162.486Z" fill="white"/>
<path d="M162.689 159.252L168.922 165.36L167.526 166.785L166.488 165.767L166.424 165.831C166.672 166.298 166.759 166.764 166.683 167.231C166.608 167.703 166.395 168.118 166.045 168.475C165.965 168.556 165.872 168.643 165.766 168.735C165.66 168.833 165.567 168.908 165.487 168.963L164.136 167.639C164.219 167.598 164.334 167.517 164.483 167.398C164.632 167.284 164.767 167.165 164.889 167.04C165.152 166.772 165.329 166.475 165.423 166.147C165.516 165.825 165.521 165.503 165.437 165.183C165.353 164.862 165.179 164.572 164.914 164.312L161.249 160.721L162.689 159.252Z" fill="white"/>
<path d="M155.021 166.141C155.685 165.571 156.377 165.216 157.096 165.078C157.816 164.944 158.523 165.021 159.218 165.308C159.916 165.597 160.562 166.088 161.157 166.781C161.742 167.462 162.126 168.171 162.309 168.907C162.491 169.649 162.472 170.365 162.25 171.054C162.031 171.747 161.605 172.365 160.973 172.907C160.565 173.258 160.123 173.522 159.647 173.701C159.171 173.885 158.677 173.96 158.163 173.927C157.647 173.895 157.128 173.738 156.604 173.453C156.083 173.172 155.573 172.741 155.074 172.16L154.664 171.682L160.091 167.022L160.994 168.074L157.063 171.449C157.322 171.746 157.615 171.956 157.941 172.08C158.27 172.208 158.606 172.241 158.949 172.181C159.289 172.124 159.609 171.967 159.908 171.71C160.227 171.436 160.44 171.118 160.548 170.756C160.659 170.396 160.675 170.033 160.595 169.667C160.515 169.307 160.349 168.977 160.098 168.679L159.31 167.76C158.979 167.375 158.625 167.105 158.247 166.95C157.872 166.798 157.495 166.757 157.116 166.828C156.74 166.901 156.382 167.084 156.043 167.375C155.816 167.57 155.638 167.778 155.508 167.999C155.381 168.223 155.304 168.456 155.277 168.699C155.251 168.941 155.283 169.185 155.375 169.431L153.777 170.518C153.538 170.054 153.425 169.568 153.437 169.058C153.448 168.554 153.586 168.051 153.85 167.55C154.116 167.052 154.506 166.582 155.021 166.141Z" fill="white"/>
<path d="M148.533 170.957C149.245 170.455 149.967 170.181 150.698 170.133C151.427 170.088 152.123 170.244 152.787 170.601C153.45 170.963 154.035 171.505 154.544 172.227C155.054 172.951 155.365 173.689 155.477 174.44C155.591 175.193 155.504 175.904 155.214 176.571C154.923 177.244 154.43 177.826 153.733 178.317C153.154 178.725 152.566 178.979 151.97 179.08C151.372 179.185 150.804 179.139 150.265 178.939C149.728 178.743 149.26 178.401 148.861 177.913L150.468 176.781C150.775 177.078 151.132 177.256 151.538 177.313C151.943 177.375 152.349 177.263 152.754 176.977C153.098 176.735 153.334 176.429 153.464 176.06C153.595 175.694 153.612 175.288 153.516 174.842C153.416 174.398 153.197 173.936 152.859 173.456C152.516 172.97 152.15 172.602 151.761 172.352C151.375 172.106 150.986 171.979 150.596 171.971C150.205 171.968 149.835 172.09 149.485 172.337C149.237 172.511 149.048 172.714 148.919 172.944C148.788 173.18 148.72 173.434 148.713 173.708C148.706 173.981 148.769 174.264 148.9 174.556L147.293 175.688C146.978 175.155 146.811 174.603 146.794 174.032C146.778 173.463 146.914 172.914 147.202 172.382C147.492 171.853 147.936 171.378 148.533 170.957Z" fill="white"/>
<path d="M145.524 183.184L144.723 181.809L149.057 179.283L149.859 180.657L145.524 183.184ZM149.841 183.087L148.064 184.123L143.938 177.045C143.799 176.806 143.656 176.644 143.51 176.558C143.362 176.477 143.214 176.45 143.067 176.474C142.919 176.499 142.771 176.554 142.624 176.64C142.513 176.705 142.416 176.772 142.334 176.842C142.249 176.914 142.185 176.971 142.144 177.012L141.035 175.798C141.11 175.71 141.225 175.594 141.379 175.452C141.53 175.312 141.729 175.165 141.977 175.011C142.415 174.739 142.855 174.572 143.297 174.512C143.742 174.454 144.16 174.522 144.553 174.714C144.942 174.908 145.272 175.241 145.544 175.714L149.841 183.087Z" fill="white"/>
<path d="M139.132 176.599L142.988 184.429L141.142 185.337L137.286 177.508L139.132 176.599ZM142.607 185.997C142.899 185.853 143.198 185.826 143.505 185.916C143.812 186.009 144.034 186.193 144.169 186.469C144.307 186.747 144.318 187.035 144.202 187.333C144.089 187.634 143.886 187.856 143.594 188C143.298 188.146 142.998 188.171 142.694 188.076C142.388 187.986 142.166 187.802 142.029 187.523C141.893 187.248 141.882 186.96 141.996 186.659C142.108 186.363 142.311 186.142 142.607 185.997Z" fill="white"/>
<path d="M130.704 180.089C131.496 179.774 132.252 179.676 132.971 179.794C133.691 179.912 134.335 180.22 134.904 180.72C135.47 181.221 135.919 181.89 136.252 182.728C136.584 183.566 136.717 184.363 136.651 185.119C136.58 185.876 136.324 186.545 135.881 187.124C135.439 187.703 134.822 188.15 134.03 188.464C133.237 188.779 132.482 188.877 131.762 188.759C131.043 188.641 130.4 188.33 129.833 187.826C129.262 187.323 128.811 186.652 128.478 185.814C128.145 184.976 128.015 184.18 128.087 183.427C128.155 182.674 128.41 182.008 128.852 181.429C129.295 180.85 129.912 180.403 130.704 180.089ZM131.302 181.624C130.872 181.795 130.56 182.055 130.365 182.406C130.171 182.76 130.084 183.166 130.102 183.623C130.117 184.081 130.223 184.557 130.418 185.05C130.615 185.546 130.866 185.967 131.169 186.311C131.471 186.66 131.814 186.897 132.197 187.021C132.581 187.146 132.988 187.123 133.417 186.953C133.857 186.778 134.176 186.513 134.373 186.158C134.567 185.804 134.655 185.395 134.639 184.933C134.62 184.476 134.513 183.999 134.316 183.503C134.12 183.01 133.872 182.591 133.572 182.245C133.268 181.901 132.924 181.667 132.541 181.542C132.155 181.422 131.742 181.45 131.302 181.624Z" fill="white"/>
<path d="M126.102 187.14L124.678 182.228L126.653 181.655L129.084 190.037L127.196 190.585L126.783 189.161L126.685 189.189C126.628 189.714 126.429 190.176 126.087 190.575C125.742 190.975 125.256 191.266 124.63 191.447C124.052 191.615 123.512 191.638 123.011 191.515C122.507 191.393 122.068 191.132 121.695 190.731C121.319 190.331 121.036 189.796 120.845 189.126L119.297 183.789L121.273 183.216L122.732 188.247C122.894 188.807 123.167 189.204 123.55 189.436C123.929 189.669 124.373 189.712 124.883 189.564C125.228 189.464 125.514 189.298 125.738 189.067C125.961 188.841 126.107 188.564 126.178 188.236C126.245 187.909 126.219 187.543 126.102 187.14Z" fill="white"/>
<path d="M103.995 188.944C104.336 188.894 104.646 188.971 104.925 189.176C105.204 189.38 105.366 189.655 105.413 190C105.466 190.337 105.388 190.643 105.18 190.918C104.971 191.194 104.696 191.357 104.355 191.407C104.026 191.455 103.721 191.377 103.443 191.173C103.16 190.969 102.992 190.699 102.939 190.362C102.91 190.133 102.939 189.916 103.028 189.711C103.113 189.508 103.241 189.336 103.412 189.196C103.58 189.06 103.774 188.976 103.995 188.944Z" fill="white"/>
<circle cx="100.152" cy="101.143" r="65.1401" fill="url(#paint0_linear_62_5)"/>
<path d="M74.7868 98V80.5455H78.4772V94.9574H85.9601V98H74.7868ZM94.3017 98.2557C92.9551 98.2557 91.7961 97.983 90.8245 97.4375C89.8586 96.8864 89.1142 96.108 88.5915 95.1023C88.0688 94.0909 87.8074 92.8949 87.8074 91.5142C87.8074 90.1676 88.0688 88.9858 88.5915 87.9688C89.1142 86.9517 89.85 86.1591 90.7989 85.5909C91.7534 85.0227 92.8728 84.7386 94.1568 84.7386C95.0205 84.7386 95.8245 84.8778 96.5688 85.1562C97.3188 85.429 97.9722 85.8409 98.529 86.392C99.0915 86.9432 99.529 87.6364 99.8415 88.4716C100.154 89.3011 100.31 90.2727 100.31 91.3864V92.3835H89.2563V90.1335H96.8926C96.8926 89.6108 96.779 89.1477 96.5517 88.7443C96.3245 88.3409 96.0091 88.0256 95.6057 87.7983C95.208 87.5653 94.7449 87.4489 94.2165 87.4489C93.6654 87.4489 93.1767 87.5767 92.7506 87.8324C92.3301 88.0824 92.0006 88.4205 91.762 88.8466C91.5233 89.267 91.4012 89.7358 91.3955 90.2528V92.392C91.3955 93.0398 91.5148 93.5994 91.7534 94.071C91.9978 94.5426 92.3415 94.9062 92.7847 95.1619C93.2279 95.4176 93.7534 95.5455 94.3614 95.5455C94.7648 95.5455 95.1341 95.4886 95.4693 95.375C95.8046 95.2614 96.0915 95.0909 96.3301 94.8636C96.5688 94.6364 96.7506 94.358 96.8756 94.0284L100.234 94.25C100.063 95.0568 99.7137 95.7614 99.1853 96.3636C98.6625 96.9602 97.9864 97.4261 97.1568 97.7614C96.333 98.0909 95.3813 98.2557 94.3017 98.2557ZM109.643 84.9091V87.6364H101.759V84.9091H109.643ZM103.549 81.7727H107.18V93.9773C107.18 94.3125 107.231 94.5739 107.333 94.7614C107.435 94.9432 107.577 95.071 107.759 95.1449C107.947 95.2187 108.163 95.2557 108.407 95.2557C108.577 95.2557 108.748 95.2415 108.918 95.2131C109.089 95.179 109.219 95.1534 109.31 95.1364L109.881 97.8381C109.699 97.8949 109.444 97.9602 109.114 98.0341C108.785 98.1136 108.384 98.1619 107.913 98.179C107.038 98.2131 106.27 98.0966 105.611 97.8295C104.958 97.5625 104.449 97.1477 104.086 96.5852C103.722 96.0227 103.543 95.3125 103.549 94.4545V81.7727ZM115.636 80.5455V82.3864C115.636 82.9091 115.534 83.4432 115.329 83.9886C115.131 84.5284 114.864 85.0398 114.528 85.5227C114.193 86 113.827 86.4062 113.429 86.7415L111.827 85.7955C112.111 85.3466 112.361 84.8494 112.577 84.304C112.798 83.7585 112.909 83.125 112.909 82.4034V80.5455H115.636ZM127.306 88.642L123.982 88.8466C123.925 88.5625 123.803 88.3068 123.616 88.0795C123.428 87.8466 123.181 87.6619 122.874 87.5256C122.573 87.3835 122.212 87.3125 121.792 87.3125C121.229 87.3125 120.755 87.4318 120.368 87.6705C119.982 87.9034 119.789 88.2159 119.789 88.608C119.789 88.9205 119.914 89.1847 120.164 89.4006C120.414 89.6165 120.843 89.7898 121.451 89.9205L123.82 90.3977C125.093 90.6591 126.042 91.0795 126.667 91.6591C127.292 92.2386 127.604 93 127.604 93.9432C127.604 94.8011 127.351 95.554 126.846 96.2017C126.346 96.8494 125.658 97.3551 124.783 97.7188C123.914 98.0767 122.911 98.2557 121.775 98.2557C120.042 98.2557 118.661 97.8949 117.633 97.1733C116.61 96.446 116.011 95.4574 115.834 94.2074L119.405 94.0199C119.513 94.5483 119.775 94.9517 120.19 95.2301C120.604 95.5028 121.136 95.6392 121.783 95.6392C122.42 95.6392 122.931 95.517 123.317 95.2727C123.709 95.0227 123.908 94.7017 123.914 94.3097C123.908 93.9801 123.769 93.7102 123.496 93.5C123.224 93.2841 122.803 93.1193 122.235 93.0057L119.968 92.554C118.69 92.2983 117.738 91.8551 117.113 91.2244C116.493 90.5937 116.184 89.7898 116.184 88.8125C116.184 87.9716 116.411 87.2472 116.866 86.6392C117.326 86.0312 117.971 85.5625 118.8 85.233C119.636 84.9034 120.613 84.7386 121.732 84.7386C123.386 84.7386 124.687 85.0881 125.636 85.7869C126.59 86.4858 127.147 87.4375 127.306 88.642ZM75.5901 126L72.0276 112.909H75.7009L77.7293 121.705H77.8486L79.9622 112.909H83.5674L85.7151 121.653H85.8259L87.8202 112.909H91.485L87.931 126H84.0872L81.8372 117.767H81.6753L79.4253 126H75.5901ZM99.0084 126.256C97.6845 126.256 96.5397 125.974 95.5737 125.412C94.6135 124.844 93.872 124.054 93.3493 123.043C92.8266 122.026 92.5652 120.847 92.5652 119.506C92.5652 118.153 92.8266 116.972 93.3493 115.96C93.872 114.943 94.6135 114.153 95.5737 113.591C96.5397 113.023 97.6845 112.739 99.0084 112.739C100.332 112.739 101.474 113.023 102.435 113.591C103.4 114.153 104.145 114.943 104.667 115.96C105.19 116.972 105.452 118.153 105.452 119.506C105.452 120.847 105.19 122.026 104.667 123.043C104.145 124.054 103.4 124.844 102.435 125.412C101.474 125.974 100.332 126.256 99.0084 126.256ZM99.0255 123.443C99.6277 123.443 100.131 123.273 100.534 122.932C100.937 122.585 101.241 122.114 101.446 121.517C101.656 120.92 101.761 120.241 101.761 119.48C101.761 118.719 101.656 118.04 101.446 117.443C101.241 116.847 100.937 116.375 100.534 116.028C100.131 115.682 99.6277 115.509 99.0255 115.509C98.4175 115.509 97.9061 115.682 97.4914 116.028C97.0823 116.375 96.7726 116.847 96.5624 117.443C96.3578 118.04 96.2556 118.719 96.2556 119.48C96.2556 120.241 96.3578 120.92 96.5624 121.517C96.7726 122.114 97.0823 122.585 97.4914 122.932C97.9061 123.273 98.4175 123.443 99.0255 123.443ZM107.812 126V112.909H111.332V115.193H111.469C111.707 114.381 112.108 113.767 112.67 113.352C113.233 112.932 113.881 112.722 114.614 112.722C114.795 112.722 114.991 112.733 115.202 112.756C115.412 112.778 115.596 112.81 115.756 112.849V116.071C115.585 116.02 115.349 115.974 115.048 115.935C114.747 115.895 114.471 115.875 114.221 115.875C113.687 115.875 113.21 115.991 112.79 116.224C112.375 116.452 112.045 116.77 111.801 117.179C111.562 117.588 111.443 118.06 111.443 118.594V126H107.812ZM120.922 122.233L120.931 117.878H121.459L125.653 112.909H129.82L124.187 119.489H123.326L120.922 122.233ZM117.633 126V108.545H121.263V126H117.633ZM125.815 126L121.962 120.298L124.383 117.733L130.067 126H125.815Z" fill="white"/>
<defs>
<linearGradient id="paint0_linear_62_5" x1="100.152" y1="36.0031" x2="100.152" y2="166.283" gradientUnits="userSpaceOnUse">
<stop stop-color="#086BFF"/>
<stop offset="1" stop-color="#5599FF"/>
</linearGradient>
</defs>
</svg>
